<svg width="226" height="55" viewBox="0 0 226 55" fill="none" xmlns="http://www.w3.org/2000/svg">
<path d="M38.5393 27.4716C35.0046 27.4716 28.3103 35.6995 28.3103 29.4054C28.3103 25.0828 32.0333 23.0162 35.1546 19.4523C38.2759 15.8877 34.6662 11.4137 32.1275 12.8731C28.6295 14.864 24.7565 17.4235 24.7565 13.5939C24.7373 -0.283865 22.1994 0.000441641 20.4876 0.000441641C18.7765 0.000441641 16.2386 -0.283865 16.2386 13.5746C16.2386 17.405 12.3456 14.8455 8.86751 12.8545C6.32883 11.4137 2.71833 15.8877 5.83962 19.433C8.96091 22.9977 12.6847 25.0643 12.6847 29.3868C12.6847 35.681 5.99044 27.4531 2.45497 27.4531C0.311334 27.4531 -1.00471 31.017 0.969737 33.8801C3.69598 37.8612 8.71669 43.9089 20.5067 43.9089C32.2967 43.9089 37.3174 37.8612 40.0436 33.8801C41.9997 31.0363 40.6829 27.4716 38.5393 27.4716Z" fill="white"/>
<path d="M21.8915 53.5725V34.9518C21.8915 34.169 21.2569 33.5344 20.474 33.5344C19.6912 33.5344 19.0566 34.169 19.0566 34.9518V53.5725C19.0566 54.3554 19.6912 54.99 20.474 54.99C21.2569 54.99 21.8915 54.3554 21.8915 53.5725Z" fill="white"/>
<path d="M65.15 31.12C63.63 31.12 62.18 30.85 60.8 30.31C59.44 29.77 58.39 29.07 57.65 28.21L58.19 27.49C58.89 28.29 59.86 28.95 61.1 29.47C62.36 29.97 63.7 30.22 65.12 30.22C67.22 30.22 68.8 29.81 69.86 28.99C70.94 28.15 71.48 27.08 71.48 25.78C71.48 24.78 71.2 23.98 70.64 23.38C70.08 22.76 69.39 22.3 68.57 22C67.75 21.68 66.63 21.35 65.21 21.01C63.69 20.63 62.47 20.26 61.55 19.9C60.63 19.54 59.85 18.99 59.21 18.25C58.57 17.51 58.25 16.52 58.25 15.28C58.25 14.3 58.51 13.4 59.03 12.58C59.55 11.76 60.34 11.11 61.4 10.63C62.48 10.13 63.82 9.88 65.42 9.88C66.56 9.88 67.68 10.05 68.78 10.39C69.9 10.73 70.85 11.2 71.63 11.8L71.18 12.61C70.36 12.01 69.44 11.56 68.42 11.26C67.42 10.94 66.43 10.78 65.45 10.78C63.41 10.78 61.86 11.21 60.8 12.07C59.76 12.91 59.24 13.98 59.24 15.28C59.24 16.3 59.52 17.12 60.08 17.74C60.66 18.34 61.36 18.8 62.18 19.12C63.02 19.44 64.14 19.77 65.54 20.11C67.06 20.49 68.28 20.86 69.2 21.22C70.12 21.56 70.89 22.1 71.51 22.84C72.15 23.56 72.47 24.53 72.47 25.75C72.47 26.73 72.2 27.63 71.66 28.45C71.14 29.27 70.33 29.92 69.23 30.4C68.13 30.88 66.77 31.12 65.15 31.12ZM97.9555 31L97.9255 12.07L88.7155 28.09H88.1755L78.9355 12.13V31H77.9455V10H78.7855L88.4455 26.8L98.0755 10H98.9155L98.9455 31H97.9555ZM106.627 10H107.647V31H106.627V10ZM130.088 31L124.898 23.77C124.218 23.89 123.458 23.95 122.618 23.95H116.348V31H115.328V10H122.618C125.238 10 127.278 10.62 128.738 11.86C130.218 13.08 130.958 14.78 130.958 16.96C130.958 18.64 130.518 20.05 129.638 21.19C128.778 22.31 127.538 23.09 125.918 23.53L131.288 31H130.088ZM122.678 23.02C125.018 23.02 126.818 22.5 128.078 21.46C129.338 20.4 129.968 18.9 129.968 16.96C129.968 15.04 129.338 13.56 128.078 12.52C126.818 11.46 125.018 10.93 122.678 10.93H116.348V23.02H122.678ZM153.631 10V31H152.791L137.881 11.86V31H136.861V10H137.701L152.611 29.14V10H153.631ZM170.024 31.12C167.984 31.12 166.134 30.66 164.474 29.74C162.834 28.82 161.544 27.55 160.604 25.93C159.664 24.31 159.194 22.5 159.194 20.5C159.194 18.5 159.664 16.69 160.604 15.07C161.544 13.45 162.834 12.18 164.474 11.26C166.134 10.34 167.984 9.88 170.024 9.88C172.064 9.88 173.914 10.34 175.574 11.26C177.234 12.18 178.534 13.45 179.474 15.07C180.414 16.69 180.884 18.5 180.884 20.5C180.884 22.5 180.414 24.31 179.474 25.93C178.534 27.55 177.234 28.82 175.574 29.74C173.914 30.66 172.064 31.12 170.024 31.12ZM170.024 30.19C171.864 30.19 173.534 29.77 175.034 28.93C176.534 28.09 177.714 26.93 178.574 25.45C179.434 23.97 179.864 22.32 179.864 20.5C179.864 18.68 179.434 17.03 178.574 15.55C177.714 14.07 176.534 12.91 175.034 12.07C173.534 11.23 171.864 10.81 170.024 10.81C168.184 10.81 166.514 11.23 165.014 12.07C163.534 12.91 162.364 14.07 161.504 15.55C160.644 17.03 160.214 18.68 160.214 20.5C160.214 22.32 160.644 23.97 161.504 25.45C162.364 26.93 163.534 28.09 165.014 28.93C166.514 29.77 168.184 30.19 170.024 30.19ZM187.452 10.93V20.53H198.852V21.43H187.452V31H186.432V10H200.202V10.93H187.452ZM206.348 10.93V20.53H217.748V21.43H206.348V31H205.328V10H219.098V10.93H206.348Z" fill="white"/>
<path d="M64.64 49L64.628 43.96L62.156 48.112H61.28L58.82 44.068V49H56.996V40.6H58.604L61.748 45.82L64.844 40.6H66.44L66.464 49H64.64ZM74.4689 47.2H70.5689L69.8249 49H67.8329L71.5769 40.6H73.4969L77.2529 49H75.2129L74.4689 47.2ZM73.8569 45.724L72.5249 42.508L71.1929 45.724H73.8569ZM81.3644 49.144C80.7004 49.144 80.0564 49.056 79.4324 48.88C78.8164 48.696 78.3204 48.46 77.9444 48.172L78.6044 46.708C78.9644 46.972 79.3924 47.184 79.8884 47.344C80.3844 47.504 80.8804 47.584 81.3764 47.584C81.9284 47.584 82.3364 47.504 82.6004 47.344C82.8644 47.176 82.9964 46.956 82.9964 46.684C82.9964 46.484 82.9164 46.32 82.7564 46.192C82.6044 46.056 82.4044 45.948 82.1564 45.868C81.9164 45.788 81.5884 45.7 81.1724 45.604C80.5324 45.452 80.0084 45.3 79.6004 45.148C79.1924 44.996 78.8404 44.752 78.5444 44.416C78.2564 44.08 78.1124 43.632 78.1124 43.072C78.1124 42.584 78.2444 42.144 78.5084 41.752C78.7724 41.352 79.1684 41.036 79.6964 40.804C80.2324 40.572 80.8844 40.456 81.6524 40.456C82.1884 40.456 82.7124 40.52 83.2244 40.648C83.7364 40.776 84.1844 40.96 84.5684 41.2L83.9684 42.676C83.1924 42.236 82.4164 42.016 81.6404 42.016C81.0964 42.016 80.6924 42.104 80.4284 42.28C80.1724 42.456 80.0444 42.688 80.0444 42.976C80.0444 43.264 80.1924 43.48 80.4884 43.624C80.7924 43.76 81.2524 43.896 81.8684 44.032C82.5084 44.184 83.0324 44.336 83.4404 44.488C83.8484 44.64 84.1964 44.88 84.4844 45.208C84.7804 45.536 84.9284 45.98 84.9284 46.54C84.9284 47.02 84.7924 47.46 84.5204 47.86C84.2564 48.252 83.8564 48.564 83.3204 48.796C82.7844 49.028 82.1324 49.144 81.3644 49.144ZM89.4968 49.144C88.8328 49.144 88.1888 49.056 87.5648 48.88C86.9488 48.696 86.4528 48.46 86.0768 48.172L86.7368 46.708C87.0968 46.972 87.5248 47.184 88.0208 47.344C88.5168 47.504 89.0128 47.584 89.5088 47.584C90.0608 47.584 90.4688 47.504 90.7328 47.344C90.9968 47.176 91.1288 46.956 91.1288 46.684C91.1288 46.484 91.0488 46.32 90.8888 46.192C90.7368 46.056 90.5368 45.948 90.2888 45.868C90.0488 45.788 89.7208 45.7 89.3048 45.604C88.6648 45.452 88.1408 45.3 87.7328 45.148C87.3248 44.996 86.9728 44.752 86.6768 44.416C86.3888 44.08 86.2448 43.632 86.2448 43.072C86.2448 42.584 86.3768 42.144 86.6408 41.752C86.9048 41.352 87.3008 41.036 87.8288 40.804C88.3648 40.572 89.0168 40.456 89.7848 40.456C90.3208 40.456 90.8448 40.52 91.3568 40.648C91.8688 40.776 92.3168 40.96 92.7008 41.2L92.1008 42.676C91.3248 42.236 90.5488 42.016 89.7728 42.016C89.2288 42.016 88.8248 42.104 88.5608 42.28C88.3048 42.456 88.1768 42.688 88.1768 42.976C88.1768 43.264 88.3248 43.48 88.6208 43.624C88.9248 43.76 89.3848 43.896 90.0008 44.032C90.6408 44.184 91.1648 44.336 91.5728 44.488C91.9808 44.64 92.3288 44.88 92.6168 45.208C92.9128 45.536 93.0608 45.98 93.0608 46.54C93.0608 47.02 92.9248 47.46 92.6528 47.86C92.3888 48.252 91.9888 48.564 91.4528 48.796C90.9168 49.028 90.2648 49.144 89.4968 49.144ZM94.8691 40.6H96.8131V49H94.8691V40.6ZM107.316 40.6L103.68 49H101.76L98.1358 40.6H100.236L102.792 46.6L105.384 40.6H107.316ZM116.201 40.6V49H114.257V45.556H110.441V49H108.497V40.6H110.441V43.912H114.257V40.6H116.201ZM122.737 49.144C121.865 49.144 121.077 48.956 120.373 48.58C119.677 48.204 119.129 47.688 118.729 47.032C118.337 46.368 118.141 45.624 118.141 44.8C118.141 43.976 118.337 43.236 118.729 42.58C119.129 41.916 119.677 41.396 120.373 41.02C121.077 40.644 121.865 40.456 122.737 40.456C123.609 40.456 124.393 40.644 125.089 41.02C125.785 41.396 126.333 41.916 126.733 42.58C127.133 43.236 127.333 43.976 127.333 44.8C127.333 45.624 127.133 46.368 126.733 47.032C126.333 47.688 125.785 48.204 125.089 48.58C124.393 48.956 123.609 49.144 122.737 49.144ZM122.737 47.488C123.233 47.488 123.681 47.376 124.081 47.152C124.481 46.92 124.793 46.6 125.017 46.192C125.249 45.784 125.365 45.32 125.365 44.8C125.365 44.28 125.249 43.816 125.017 43.408C124.793 43 124.481 42.684 124.081 42.46C123.681 42.228 123.233 42.112 122.737 42.112C122.241 42.112 121.793 42.228 121.393 42.46C120.993 42.684 120.677 43 120.445 43.408C120.221 43.816 120.109 44.28 120.109 44.8C120.109 45.32 120.221 45.784 120.445 46.192C120.677 46.6 120.993 46.92 121.393 47.152C121.793 47.376 122.241 47.488 122.737 47.488ZM129.273 40.6H131.217V47.416H135.429V49H129.273V40.6ZM143.8 47.416V49H136.456V47.74L141.064 42.184H136.552V40.6H143.62V41.86L139.024 47.416H143.8ZM149.162 40.6C149.906 40.6 150.55 40.724 151.094 40.972C151.646 41.22 152.07 41.572 152.366 42.028C152.662 42.484 152.81 43.024 152.81 43.648C152.81 44.264 152.662 44.804 152.366 45.268C152.07 45.724 151.646 46.076 151.094 46.324C150.55 46.564 149.906 46.684 149.162 46.684H147.47V49H145.526V40.6H149.162ZM149.054 45.1C149.638 45.1 150.082 44.976 150.386 44.728C150.69 44.472 150.842 44.112 150.842 43.648C150.842 43.176 150.69 42.816 150.386 42.568C150.082 42.312 149.638 42.184 149.054 42.184H147.47V45.1H149.054ZM160.03 49L158.41 46.66H158.314H156.622V49H154.678V40.6H158.314C159.058 40.6 159.702 40.724 160.246 40.972C160.798 41.22 161.222 41.572 161.518 42.028C161.814 42.484 161.962 43.024 161.962 43.648C161.962 44.272 161.81 44.812 161.506 45.268C161.21 45.716 160.786 46.06 160.234 46.3L162.118 49H160.03ZM159.994 43.648C159.994 43.176 159.842 42.816 159.538 42.568C159.234 42.312 158.79 42.184 158.206 42.184H156.622V45.112H158.206C158.79 45.112 159.234 44.984 159.538 44.728C159.842 44.472 159.994 44.112 159.994 43.648ZM168.051 49.144C167.179 49.144 166.391 48.956 165.687 48.58C164.991 48.204 164.443 47.688 164.043 47.032C163.651 46.368 163.455 45.624 163.455 44.8C163.455 43.976 163.651 43.236 164.043 42.58C164.443 41.916 164.991 41.396 165.687 41.02C166.391 40.644 167.179 40.456 168.051 40.456C168.923 40.456 169.707 40.644 170.403 41.02C171.099 41.396 171.647 41.916 172.047 42.58C172.447 43.236 172.647 43.976 172.647 44.8C172.647 45.624 172.447 46.368 172.047 47.032C171.647 47.688 171.099 48.204 170.403 48.58C169.707 48.956 168.923 49.144 168.051 49.144ZM168.051 47.488C168.547 47.488 168.995 47.376 169.395 47.152C169.795 46.92 170.107 46.6 170.331 46.192C170.563 45.784 170.679 45.32 170.679 44.8C170.679 44.28 170.563 43.816 170.331 43.408C170.107 43 169.795 42.684 169.395 42.46C168.995 42.228 168.547 42.112 168.051 42.112C167.555 42.112 167.107 42.228 166.707 42.46C166.307 42.684 165.991 43 165.759 43.408C165.535 43.816 165.423 44.28 165.423 44.8C165.423 45.32 165.535 45.784 165.759 46.192C165.991 46.6 166.307 46.92 166.707 47.152C167.107 47.376 167.555 47.488 168.051 47.488ZM174.588 40.6H178.404C179.316 40.6 180.12 40.776 180.816 41.128C181.52 41.472 182.064 41.96 182.448 42.592C182.84 43.224 183.036 43.96 183.036 44.8C183.036 45.64 182.84 46.376 182.448 47.008C182.064 47.64 181.52 48.132 180.816 48.484C180.12 48.828 179.316 49 178.404 49H174.588V40.6ZM178.308 47.404C179.148 47.404 179.816 47.172 180.312 46.708C180.816 46.236 181.068 45.6 181.068 44.8C181.068 44 180.816 43.368 180.312 42.904C179.816 42.432 179.148 42.196 178.308 42.196H176.532V47.404H178.308ZM188.714 49.144C187.514 49.144 186.578 48.812 185.906 48.148C185.242 47.484 184.91 46.536 184.91 45.304V40.6H186.854V45.232C186.854 46.736 187.478 47.488 188.726 47.488C189.334 47.488 189.798 47.308 190.118 46.948C190.438 46.58 190.598 46.008 190.598 45.232V40.6H192.518V45.304C192.518 46.536 192.182 47.484 191.51 48.148C190.846 48.812 189.914 49.144 188.714 49.144ZM197.979 45.7L196.851 46.876V49H194.919V40.6H196.851V44.524L200.571 40.6H202.731L199.251 44.344L202.935 49H200.667L197.979 45.7ZM205.447 42.184H202.759V40.6H210.079V42.184H207.391V49H205.447V42.184ZM218.109 47.44V49H211.605V40.6H217.953V42.16H213.537V43.984H217.437V45.496H213.537V47.44H218.109Z" fill="white"/>
</svg>
