<svg width="261" height="347" viewBox="0 0 261 347" fill="none" xmlns="http://www.w3.org/2000/svg">
<path d="M244.705 172.853C222.262 172.853 179.756 224.624 179.756 185.02C179.756 157.823 203.396 144.819 223.214 122.395C243.033 99.966 220.113 71.8155 203.994 80.9981C181.783 93.5251 157.191 109.63 157.191 85.5335C157.07 -1.7861 140.955 0.00277883 130.086 0.00277883C119.221 0.00277883 103.107 -1.7861 103.107 85.412C103.107 109.513 78.3881 93.4084 56.3042 80.8814C40.1849 71.8155 17.2601 99.966 37.0787 122.274C56.8973 144.703 80.5416 157.706 80.5416 184.904C80.5416 224.507 38.0363 172.736 15.5878 172.736C1.97681 172.736 -6.37938 195.161 6.15734 213.176C23.4676 238.225 55.3466 276.277 130.207 276.277C205.068 276.277 236.947 238.225 254.257 213.176C266.677 195.282 258.316 172.853 244.705 172.853Z" fill="black"/>
<path d="M139 337V220C139 215.029 134.971 211 130 211C125.029 211 121 215.029 121 220V337C121 341.971 125.029 346 130 346C134.971 346 139 341.971 139 337Z" fill="black"/>
</svg>
