<svg width="170" height="113" viewBox="0 0 170 113" fill="none" xmlns="http://www.w3.org/2000/svg">
<path d="M9.15 92.12C7.63 92.12 6.18 91.85 4.8 91.31C3.44 90.77 2.39 90.07 1.65 89.21L2.19 88.49C2.89 89.29 3.86 89.95 5.1 90.47C6.36 90.97 7.7 91.22 9.12 91.22C11.22 91.22 12.8 90.81 13.86 89.99C14.94 89.15 15.48 88.08 15.48 86.78C15.48 85.78 15.2 84.98 14.64 84.38C14.08 83.76 13.39 83.3 12.57 83C11.75 82.68 10.63 82.35 9.21 82.01C7.69 81.63 6.47 81.26 5.55 80.9C4.63 80.54 3.85 79.99 3.21 79.25C2.57 78.51 2.25 77.52 2.25 76.28C2.25 75.3 2.51 74.4 3.03 73.58C3.55 72.76 4.34 72.11 5.4 71.63C6.48 71.13 7.82 70.88 9.42 70.88C10.56 70.88 11.68 71.05 12.78 71.39C13.9 71.73 14.85 72.2 15.63 72.8L15.18 73.61C14.36 73.01 13.44 72.56 12.42 72.26C11.42 71.94 10.43 71.78 9.45 71.78C7.41 71.78 5.86 72.21 4.8 73.07C3.76 73.91 3.24 74.98 3.24 76.28C3.24 77.3 3.52 78.12 4.08 78.74C4.66 79.34 5.36 79.8 6.18 80.12C7.02 80.44 8.14 80.77 9.54 81.11C11.06 81.49 12.28 81.86 13.2 82.22C14.12 82.56 14.89 83.1 15.51 83.84C16.15 84.56 16.47 85.53 16.47 86.75C16.47 87.73 16.2 88.63 15.66 89.45C15.14 90.27 14.33 90.92 13.23 91.4C12.13 91.88 10.77 92.12 9.15 92.12ZM41.9555 92L41.9255 73.07L32.7155 89.09H32.1755L22.9355 73.13V92H21.9455V71H22.7855L32.4455 87.8L42.0755 71H42.9155L42.9455 92H41.9555ZM50.6271 71H51.6471V92H50.6271V71ZM74.0883 92L68.8983 84.77C68.2183 84.89 67.4583 84.95 66.6183 84.95H60.3483V92H59.3283V71H66.6183C69.2383 71 71.2783 71.62 72.7383 72.86C74.2183 74.08 74.9583 75.78 74.9583 77.96C74.9583 79.64 74.5183 81.05 73.6383 82.19C72.7783 83.31 71.5383 84.09 69.9183 84.53L75.2883 92H74.0883ZM66.6783 84.02C69.0183 84.02 70.8183 83.5 72.0783 82.46C73.3383 81.4 73.9683 79.9 73.9683 77.96C73.9683 76.04 73.3383 74.56 72.0783 73.52C70.8183 72.46 69.0183 71.93 66.6783 71.93H60.3483V84.02H66.6783ZM97.6315 71V92H96.7915L81.8815 72.86V92H80.8615V71H81.7015L96.6115 90.14V71H97.6315ZM114.024 92.12C111.984 92.12 110.134 91.66 108.474 90.74C106.834 89.82 105.544 88.55 104.604 86.93C103.664 85.31 103.194 83.5 103.194 81.5C103.194 79.5 103.664 77.69 104.604 76.07C105.544 74.45 106.834 73.18 108.474 72.26C110.134 71.34 111.984 70.88 114.024 70.88C116.064 70.88 117.914 71.34 119.574 72.26C121.234 73.18 122.534 74.45 123.474 76.07C124.414 77.69 124.884 79.5 124.884 81.5C124.884 83.5 124.414 85.31 123.474 86.93C122.534 88.55 121.234 89.82 119.574 90.74C117.914 91.66 116.064 92.12 114.024 92.12ZM114.024 91.19C115.864 91.19 117.534 90.77 119.034 89.93C120.534 89.09 121.714 87.93 122.574 86.45C123.434 84.97 123.864 83.32 123.864 81.5C123.864 79.68 123.434 78.03 122.574 76.55C121.714 75.07 120.534 73.91 119.034 73.07C117.534 72.23 115.864 71.81 114.024 71.81C112.184 71.81 110.514 72.23 109.014 73.07C107.534 73.91 106.364 75.07 105.504 76.55C104.644 78.03 104.214 79.68 104.214 81.5C104.214 83.32 104.644 84.97 105.504 86.45C106.364 87.93 107.534 89.09 109.014 89.93C110.514 90.77 112.184 91.19 114.024 91.19ZM131.452 71.93V81.53H142.852V82.43H131.452V92H130.432V71H144.202V71.93H131.452ZM150.348 71.93V81.53H161.748V82.43H150.348V92H149.328V71H163.098V71.93H150.348Z" fill="white"/>
<path d="M8.64 110L8.628 104.96L6.156 109.112H5.28L2.82 105.068V110H0.996V101.6H2.604L5.748 106.82L8.844 101.6H10.44L10.464 110H8.64ZM18.4689 108.2H14.5689L13.8249 110H11.8329L15.5769 101.6H17.4969L21.2529 110H19.2129L18.4689 108.2ZM17.8569 106.724L16.5249 103.508L15.1929 106.724H17.8569ZM25.3644 110.144C24.7004 110.144 24.0564 110.056 23.4324 109.88C22.8164 109.696 22.3204 109.46 21.9444 109.172L22.6044 107.708C22.9644 107.972 23.3924 108.184 23.8884 108.344C24.3844 108.504 24.8804 108.584 25.3764 108.584C25.9284 108.584 26.3364 108.504 26.6004 108.344C26.8644 108.176 26.9964 107.956 26.9964 107.684C26.9964 107.484 26.9164 107.32 26.7564 107.192C26.6044 107.056 26.4044 106.948 26.1564 106.868C25.9164 106.788 25.5884 106.7 25.1724 106.604C24.5324 106.452 24.0084 106.3 23.6004 106.148C23.1924 105.996 22.8404 105.752 22.5444 105.416C22.2564 105.08 22.1124 104.632 22.1124 104.072C22.1124 103.584 22.2444 103.144 22.5084 102.752C22.7724 102.352 23.1684 102.036 23.6964 101.804C24.2324 101.572 24.8844 101.456 25.6524 101.456C26.1884 101.456 26.7124 101.52 27.2244 101.648C27.7364 101.776 28.1844 101.96 28.5684 102.2L27.9684 103.676C27.1924 103.236 26.4164 103.016 25.6404 103.016C25.0964 103.016 24.6924 103.104 24.4284 103.28C24.1724 103.456 24.0444 103.688 24.0444 103.976C24.0444 104.264 24.1924 104.48 24.4884 104.624C24.7924 104.76 25.2524 104.896 25.8684 105.032C26.5084 105.184 27.0324 105.336 27.4404 105.488C27.8484 105.64 28.1964 105.88 28.4844 106.208C28.7804 106.536 28.9284 106.98 28.9284 107.54C28.9284 108.02 28.7924 108.46 28.5204 108.86C28.2564 109.252 27.8564 109.564 27.3204 109.796C26.7844 110.028 26.1324 110.144 25.3644 110.144ZM33.4968 110.144C32.8328 110.144 32.1888 110.056 31.5648 109.88C30.9488 109.696 30.4528 109.46 30.0768 109.172L30.7368 107.708C31.0968 107.972 31.5248 108.184 32.0208 108.344C32.5168 108.504 33.0128 108.584 33.5088 108.584C34.0608 108.584 34.4688 108.504 34.7328 108.344C34.9968 108.176 35.1288 107.956 35.1288 107.684C35.1288 107.484 35.0488 107.32 34.8888 107.192C34.7368 107.056 34.5368 106.948 34.2888 106.868C34.0488 106.788 33.7208 106.7 33.3048 106.604C32.6648 106.452 32.1408 106.3 31.7328 106.148C31.3248 105.996 30.9728 105.752 30.6768 105.416C30.3888 105.08 30.2448 104.632 30.2448 104.072C30.2448 103.584 30.3768 103.144 30.6408 102.752C30.9048 102.352 31.3008 102.036 31.8288 101.804C32.3648 101.572 33.0168 101.456 33.7848 101.456C34.3208 101.456 34.8448 101.52 35.3568 101.648C35.8688 101.776 36.3168 101.96 36.7008 102.2L36.1008 103.676C35.3248 103.236 34.5488 103.016 33.7728 103.016C33.2288 103.016 32.8248 103.104 32.5608 103.28C32.3048 103.456 32.1768 103.688 32.1768 103.976C32.1768 104.264 32.3248 104.48 32.6208 104.624C32.9248 104.76 33.3848 104.896 34.0008 105.032C34.6408 105.184 35.1648 105.336 35.5728 105.488C35.9808 105.64 36.3288 105.88 36.6168 106.208C36.9128 106.536 37.0608 106.98 37.0608 107.54C37.0608 108.02 36.9248 108.46 36.6528 108.86C36.3888 109.252 35.9888 109.564 35.4528 109.796C34.9168 110.028 34.2648 110.144 33.4968 110.144ZM38.8691 101.6H40.8131V110H38.8691V101.6ZM51.3158 101.6L47.6798 110H45.7598L42.1358 101.6H44.2358L46.7918 107.6L49.3838 101.6H51.3158ZM60.2011 101.6V110H58.2571V106.556H54.4411V110H52.4971V101.6H54.4411V104.912H58.2571V101.6H60.2011ZM66.7365 110.144C65.8645 110.144 65.0765 109.956 64.3725 109.58C63.6765 109.204 63.1285 108.688 62.7285 108.032C62.3365 107.368 62.1405 106.624 62.1405 105.8C62.1405 104.976 62.3365 104.236 62.7285 103.58C63.1285 102.916 63.6765 102.396 64.3725 102.02C65.0765 101.644 65.8645 101.456 66.7365 101.456C67.6085 101.456 68.3925 101.644 69.0885 102.02C69.7845 102.396 70.3325 102.916 70.7325 103.58C71.1325 104.236 71.3325 104.976 71.3325 105.8C71.3325 106.624 71.1325 107.368 70.7325 108.032C70.3325 108.688 69.7845 109.204 69.0885 109.58C68.3925 109.956 67.6085 110.144 66.7365 110.144ZM66.7365 108.488C67.2325 108.488 67.6805 108.376 68.0805 108.152C68.4805 107.92 68.7925 107.6 69.0165 107.192C69.2485 106.784 69.3645 106.32 69.3645 105.8C69.3645 105.28 69.2485 104.816 69.0165 104.408C68.7925 104 68.4805 103.684 68.0805 103.46C67.6805 103.228 67.2325 103.112 66.7365 103.112C66.2405 103.112 65.7925 103.228 65.3925 103.46C64.9925 103.684 64.6765 104 64.4445 104.408C64.2205 104.816 64.1085 105.28 64.1085 105.8C64.1085 106.32 64.2205 106.784 64.4445 107.192C64.6765 107.6 64.9925 107.92 65.3925 108.152C65.7925 108.376 66.2405 108.488 66.7365 108.488ZM73.2735 101.6H75.2175V108.416H79.4295V110H73.2735V101.6ZM87.7997 108.416V110H80.4557V108.74L85.0637 103.184H80.5517V101.6H87.6197V102.86L83.0237 108.416H87.7997ZM93.1625 101.6C93.9065 101.6 94.5505 101.724 95.0945 101.972C95.6465 102.22 96.0705 102.572 96.3665 103.028C96.6625 103.484 96.8105 104.024 96.8105 104.648C96.8105 105.264 96.6625 105.804 96.3665 106.268C96.0705 106.724 95.6465 107.076 95.0945 107.324C94.5505 107.564 93.9065 107.684 93.1625 107.684H91.4705V110H89.5265V101.6H93.1625ZM93.0545 106.1C93.6385 106.1 94.0825 105.976 94.3865 105.728C94.6905 105.472 94.8425 105.112 94.8425 104.648C94.8425 104.176 94.6905 103.816 94.3865 103.568C94.0825 103.312 93.6385 103.184 93.0545 103.184H91.4705V106.1H93.0545ZM104.03 110L102.41 107.66H102.314H100.622V110H98.6783V101.6H102.314C103.058 101.6 103.702 101.724 104.246 101.972C104.798 102.22 105.222 102.572 105.518 103.028C105.814 103.484 105.962 104.024 105.962 104.648C105.962 105.272 105.81 105.812 105.506 106.268C105.21 106.716 104.786 107.06 104.234 107.3L106.118 110H104.03ZM103.994 104.648C103.994 104.176 103.842 103.816 103.538 103.568C103.234 103.312 102.79 103.184 102.206 103.184H100.622V106.112H102.206C102.79 106.112 103.234 105.984 103.538 105.728C103.842 105.472 103.994 105.112 103.994 104.648ZM112.051 110.144C111.179 110.144 110.391 109.956 109.687 109.58C108.991 109.204 108.443 108.688 108.043 108.032C107.651 107.368 107.455 106.624 107.455 105.8C107.455 104.976 107.651 104.236 108.043 103.58C108.443 102.916 108.991 102.396 109.687 102.02C110.391 101.644 111.179 101.456 112.051 101.456C112.923 101.456 113.707 101.644 114.403 102.02C115.099 102.396 115.647 102.916 116.047 103.58C116.447 104.236 116.647 104.976 116.647 105.8C116.647 106.624 116.447 107.368 116.047 108.032C115.647 108.688 115.099 109.204 114.403 109.58C113.707 109.956 112.923 110.144 112.051 110.144ZM112.051 108.488C112.547 108.488 112.995 108.376 113.395 108.152C113.795 107.92 114.107 107.6 114.331 107.192C114.563 106.784 114.679 106.32 114.679 105.8C114.679 105.28 114.563 104.816 114.331 104.408C114.107 104 113.795 103.684 113.395 103.46C112.995 103.228 112.547 103.112 112.051 103.112C111.555 103.112 111.107 103.228 110.707 103.46C110.307 103.684 109.991 104 109.759 104.408C109.535 104.816 109.423 105.28 109.423 105.8C109.423 106.32 109.535 106.784 109.759 107.192C109.991 107.6 110.307 107.92 110.707 108.152C111.107 108.376 111.555 108.488 112.051 108.488ZM118.588 101.6H122.404C123.316 101.6 124.12 101.776 124.816 102.128C125.52 102.472 126.064 102.96 126.448 103.592C126.84 104.224 127.036 104.96 127.036 105.8C127.036 106.64 126.84 107.376 126.448 108.008C126.064 108.64 125.52 109.132 124.816 109.484C124.12 109.828 123.316 110 122.404 110H118.588V101.6ZM122.308 108.404C123.148 108.404 123.816 108.172 124.312 107.708C124.816 107.236 125.068 106.6 125.068 105.8C125.068 105 124.816 104.368 124.312 103.904C123.816 103.432 123.148 103.196 122.308 103.196H120.532V108.404H122.308ZM132.714 110.144C131.514 110.144 130.578 109.812 129.906 109.148C129.242 108.484 128.91 107.536 128.91 106.304V101.6H130.854V106.232C130.854 107.736 131.478 108.488 132.726 108.488C133.334 108.488 133.798 108.308 134.118 107.948C134.438 107.58 134.598 107.008 134.598 106.232V101.6H136.518V106.304C136.518 107.536 136.182 108.484 135.51 109.148C134.846 109.812 133.914 110.144 132.714 110.144ZM141.979 106.7L140.851 107.876V110H138.919V101.6H140.851V105.524L144.571 101.6H146.731L143.251 105.344L146.935 110H144.667L141.979 106.7ZM149.447 103.184H146.759V101.6H154.079V103.184H151.391V110H149.447V103.184ZM162.109 108.44V110H155.605V101.6H161.953V103.16H157.537V104.984H161.437V106.496H157.537V108.44H162.109Z" fill="white"/>
<path d="M103.539 27.4716C100.005 27.4716 93.3103 35.6995 93.3103 29.4054C93.3103 25.0828 97.0333 23.0162 100.155 19.4523C103.276 15.8877 99.6662 11.4137 97.1275 12.8731C93.6295 14.864 89.7565 17.4235 89.7565 13.5939C89.7373 -0.283865 87.1994 0.000441641 85.4876 0.000441641C83.7765 0.000441641 81.2386 -0.283865 81.2386 13.5746C81.2386 17.405 77.3456 14.8455 73.8675 12.8545C71.3288 11.4137 67.7183 15.8877 70.8396 19.433C73.9609 22.9977 77.6847 25.0643 77.6847 29.3868C77.6847 35.681 70.9904 27.4531 67.455 27.4531C65.3113 27.4531 63.9953 31.017 65.9697 33.8801C68.696 37.8612 73.7167 43.9089 85.5067 43.9089C97.2967 43.9089 102.317 37.8612 105.044 33.8801C107 31.0363 105.683 27.4716 103.539 27.4716Z" fill="white"/>
<path d="M86.8915 53.5725V34.9518C86.8915 34.169 86.2569 33.5344 85.4741 33.5344C84.6912 33.5344 84.0566 34.169 84.0566 34.9518V53.5725C84.0566 54.3554 84.6912 54.99 85.4741 54.99C86.2569 54.99 86.8915 54.3554 86.8915 53.5725Z" fill="white"/>
</svg>
