<svg width="170" height="113" viewBox="0 0 170 113" fill="none" xmlns="http://www.w3.org/2000/svg">
<path d="M9.15 92.12C7.63 92.12 6.18 91.85 4.8 91.31C3.44 90.77 2.39 90.07 1.65 89.21L2.19 88.49C2.89 89.29 3.86 89.95 5.1 90.47C6.36 90.97 7.7 91.22 9.12 91.22C11.22 91.22 12.8 90.81 13.86 89.99C14.94 89.15 15.48 88.08 15.48 86.78C15.48 85.78 15.2 84.98 14.64 84.38C14.08 83.76 13.39 83.3 12.57 83C11.75 82.68 10.63 82.35 9.21 82.01C7.69 81.63 6.47 81.26 5.55 80.9C4.63 80.54 3.85 79.99 3.21 79.25C2.57 78.51 2.25 77.52 2.25 76.28C2.25 75.3 2.51 74.4 3.03 73.58C3.55 72.76 4.34 72.11 5.4 71.63C6.48 71.13 7.82 70.88 9.42 70.88C10.56 70.88 11.68 71.05 12.78 71.39C13.9 71.73 14.85 72.2 15.63 72.8L15.18 73.61C14.36 73.01 13.44 72.56 12.42 72.26C11.42 71.94 10.43 71.78 9.45 71.78C7.41 71.78 5.86 72.21 4.8 73.07C3.76 73.91 3.24 74.98 3.24 76.28C3.24 77.3 3.52 78.12 4.08 78.74C4.66 79.34 5.36 79.8 6.18 80.12C7.02 80.44 8.14 80.77 9.54 81.11C11.06 81.49 12.28 81.86 13.2 82.22C14.12 82.56 14.89 83.1 15.51 83.84C16.15 84.56 16.47 85.53 16.47 86.75C16.47 87.73 16.2 88.63 15.66 89.45C15.14 90.27 14.33 90.92 13.23 91.4C12.13 91.88 10.77 92.12 9.15 92.12ZM41.9555 92L41.9255 73.07L32.7155 89.09H32.1755L22.9355 73.13V92H21.9455V71H22.7855L32.4455 87.8L42.0755 71H42.9155L42.9455 92H41.9555ZM50.6271 71H51.6471V92H50.6271V71ZM74.0883 92L68.8983 84.77C68.2183 84.89 67.4583 84.95 66.6183 84.95H60.3483V92H59.3283V71H66.6183C69.2383 71 71.2783 71.62 72.7383 72.86C74.2183 74.08 74.9583 75.78 74.9583 77.96C74.9583 79.64 74.5183 81.05 73.6383 82.19C72.7783 83.31 71.5383 84.09 69.9183 84.53L75.2883 92H74.0883ZM66.6783 84.02C69.0183 84.02 70.8183 83.5 72.0783 82.46C73.3383 81.4 73.9683 79.9 73.9683 77.96C73.9683 76.04 73.3383 74.56 72.0783 73.52C70.8183 72.46 69.0183 71.93 66.6783 71.93H60.3483V84.02H66.6783ZM97.6315 71V92H96.7915L81.8815 72.86V92H80.8615V71H81.7015L96.6115 90.14V71H97.6315ZM114.024 92.12C111.984 92.12 110.134 91.66 108.474 90.74C106.834 89.82 105.544 88.55 104.604 86.93C103.664 85.31 103.194 83.5 103.194 81.5C103.194 79.5 103.664 77.69 104.604 76.07C105.544 74.45 106.834 73.18 108.474 72.26C110.134 71.34 111.984 70.88 114.024 70.88C116.064 70.88 117.914 71.34 119.574 72.26C121.234 73.18 122.534 74.45 123.474 76.07C124.414 77.69 124.884 79.5 124.884 81.5C124.884 83.5 124.414 85.31 123.474 86.93C122.534 88.55 121.234 89.82 119.574 90.74C117.914 91.66 116.064 92.12 114.024 92.12ZM114.024 91.19C115.864 91.19 117.534 90.77 119.034 89.93C120.534 89.09 121.714 87.93 122.574 86.45C123.434 84.97 123.864 83.32 123.864 81.5C123.864 79.68 123.434 78.03 122.574 76.55C121.714 75.07 120.534 73.91 119.034 73.07C117.534 72.23 115.864 71.81 114.024 71.81C112.184 71.81 110.514 72.23 109.014 73.07C107.534 73.91 106.364 75.07 105.504 76.55C104.644 78.03 104.214 79.68 104.214 81.5C104.214 83.32 104.644 84.97 105.504 86.45C106.364 87.93 107.534 89.09 109.014 89.93C110.514 90.77 112.184 91.19 114.024 91.19ZM131.452 71.93V81.53H142.852V82.43H131.452V92H130.432V71H144.202V71.93H131.452ZM150.348 71.93V81.53H161.748V82.43H150.348V92H149.328V71H163.098V71.93H150.348Z" fill="white"/>
<path d="M1.044 101.6H2.976V107.072L6.984 101.6H8.808V110H6.888V104.54L2.88 110H1.044V101.6ZM16.1555 105.62C16.6435 105.788 17.0235 106.052 17.2955 106.412C17.5755 106.764 17.7155 107.176 17.7155 107.648C17.7155 108.16 17.5475 108.604 17.2115 108.98C16.8755 109.356 16.4195 109.644 15.8435 109.844C15.2755 110.044 14.6515 110.144 13.9715 110.144C13.3955 110.144 12.8195 110.072 12.2435 109.928C11.6755 109.784 11.1355 109.564 10.6235 109.268L11.2235 107.876C11.5915 108.1 11.9955 108.272 12.4355 108.392C12.8835 108.504 13.3195 108.56 13.7435 108.56C14.3195 108.56 14.7955 108.456 15.1715 108.248C15.5555 108.04 15.7475 107.748 15.7475 107.372C15.7475 107.06 15.6155 106.824 15.3515 106.664C15.0955 106.504 14.7435 106.424 14.2955 106.424H12.2435V104.96H14.1515C14.5435 104.96 14.8475 104.88 15.0635 104.72C15.2875 104.56 15.3995 104.34 15.3995 104.06C15.3995 103.732 15.2395 103.476 14.9195 103.292C14.6075 103.108 14.2035 103.016 13.7075 103.016C13.3395 103.016 12.9595 103.068 12.5675 103.172C12.1755 103.268 11.8035 103.416 11.4515 103.616L10.8635 102.104C11.7515 101.648 12.7115 101.42 13.7435 101.42C14.3995 101.42 15.0035 101.516 15.5555 101.708C16.1075 101.9 16.5475 102.18 16.8755 102.548C17.2035 102.916 17.3675 103.344 17.3675 103.832C17.3675 104.232 17.2595 104.588 17.0435 104.9C16.8275 105.212 16.5315 105.452 16.1555 105.62ZM28.3985 108.416V111.74H26.5985V110H20.6705V111.74H18.8705L18.8825 108.416H19.2185C19.7225 108.4 20.0785 108.032 20.2865 107.312C20.4945 106.592 20.6225 105.564 20.6705 104.228L20.7665 101.6H27.2225V108.416H28.3985ZM22.3865 104.408C22.3465 105.408 22.2625 106.248 22.1345 106.928C22.0065 107.6 21.8105 108.096 21.5465 108.416H25.3025V103.184H22.4225L22.3865 104.408ZM36.6911 108.44V110H30.1871V101.6H36.5351V103.16H32.1191V104.984H36.0191V106.496H32.1191V108.44H36.6911ZM46.2293 101.6V110H44.3093V103.184H41.4293L41.3693 104.936C41.3293 106.128 41.2333 107.096 41.0813 107.84C40.9293 108.576 40.6733 109.144 40.3133 109.544C39.9613 109.936 39.4653 110.132 38.8253 110.132C38.5613 110.132 38.2413 110.088 37.8653 110L37.9853 108.356C38.0893 108.388 38.2053 108.404 38.3333 108.404C38.7973 108.404 39.1213 108.132 39.3053 107.588C39.4893 107.036 39.6053 106.176 39.6533 105.008L39.7733 101.6H46.2293ZM48.8073 101.6H50.7393V107.072L54.7473 101.6H56.5713V110H54.6513V104.54L50.6433 110H48.8073V101.6ZM65.8508 101.6V110H63.9308V107.768H62.1548L60.6668 110H58.6148L60.3668 107.468C59.7988 107.236 59.3628 106.888 59.0588 106.424C58.7548 105.952 58.6028 105.388 58.6028 104.732C58.6028 104.084 58.7508 103.528 59.0468 103.064C59.3428 102.592 59.7628 102.232 60.3068 101.984C60.8508 101.728 61.4908 101.6 62.2268 101.6H65.8508ZM62.2748 103.184C61.7228 103.184 61.2988 103.312 61.0028 103.568C60.7148 103.824 60.5708 104.204 60.5708 104.708C60.5708 105.196 60.7108 105.572 60.9908 105.836C61.2708 106.1 61.6828 106.232 62.2268 106.232H63.9308V103.184H62.2748ZM72.3137 101.6H74.2457V107.072L78.2537 101.6H80.0777V110H78.1577V104.54L74.1497 110H72.3137V101.6ZM87.4252 105.62C87.9132 105.788 88.2932 106.052 88.5652 106.412C88.8452 106.764 88.9852 107.176 88.9852 107.648C88.9852 108.16 88.8172 108.604 88.4812 108.98C88.1452 109.356 87.6892 109.644 87.1132 109.844C86.5452 110.044 85.9212 110.144 85.2412 110.144C84.6652 110.144 84.0892 110.072 83.5132 109.928C82.9452 109.784 82.4052 109.564 81.8932 109.268L82.4932 107.876C82.8612 108.1 83.2652 108.272 83.7052 108.392C84.1532 108.504 84.5892 108.56 85.0132 108.56C85.5892 108.56 86.0652 108.456 86.4412 108.248C86.8252 108.04 87.0172 107.748 87.0172 107.372C87.0172 107.06 86.8852 106.824 86.6212 106.664C86.3652 106.504 86.0132 106.424 85.5652 106.424H83.5132V104.96H85.4212C85.8132 104.96 86.1172 104.88 86.3332 104.72C86.5572 104.56 86.6692 104.34 86.6692 104.06C86.6692 103.732 86.5092 103.476 86.1892 103.292C85.8772 103.108 85.4732 103.016 84.9772 103.016C84.6092 103.016 84.2292 103.068 83.8372 103.172C83.4452 103.268 83.0732 103.416 82.7212 103.616L82.1332 102.104C83.0212 101.648 83.9812 101.42 85.0132 101.42C85.6692 101.42 86.2732 101.516 86.8252 101.708C87.3772 101.9 87.8172 102.18 88.1452 102.548C88.4732 102.916 88.6372 103.344 88.6372 103.832C88.6372 104.232 88.5292 104.588 88.3132 104.9C88.0972 105.212 87.8012 105.452 87.4252 105.62ZM102.527 110L102.515 104.972L100.043 109.112H99.1786L96.7066 105.068V110H94.8826V101.6H96.4906L99.6346 106.82L102.731 101.6H104.339L104.351 110H102.527ZM112.605 108.2H108.705L107.961 110H105.969L109.713 101.6H111.633L115.389 110H113.349L112.605 108.2ZM111.993 106.724L110.661 103.508L109.329 106.724H111.993ZM120.838 110.144C119.982 110.144 119.206 109.96 118.51 109.592C117.822 109.216 117.278 108.7 116.878 108.044C116.486 107.38 116.29 106.632 116.29 105.8C116.29 104.968 116.486 104.224 116.878 103.568C117.278 102.904 117.822 102.388 118.51 102.02C119.206 101.644 119.986 101.456 120.85 101.456C121.578 101.456 122.234 101.584 122.818 101.84C123.41 102.096 123.906 102.464 124.306 102.944L123.058 104.096C122.49 103.44 121.786 103.112 120.946 103.112C120.426 103.112 119.962 103.228 119.554 103.46C119.146 103.684 118.826 104 118.594 104.408C118.37 104.816 118.258 105.28 118.258 105.8C118.258 106.32 118.37 106.784 118.594 107.192C118.826 107.6 119.146 107.92 119.554 108.152C119.962 108.376 120.426 108.488 120.946 108.488C121.786 108.488 122.49 108.156 123.058 107.492L124.306 108.644C123.906 109.132 123.41 109.504 122.818 109.76C122.226 110.016 121.566 110.144 120.838 110.144ZM129.849 110.144C128.993 110.144 128.217 109.96 127.521 109.592C126.833 109.216 126.289 108.7 125.889 108.044C125.497 107.38 125.301 106.632 125.301 105.8C125.301 104.968 125.497 104.224 125.889 103.568C126.289 102.904 126.833 102.388 127.521 102.02C128.217 101.644 128.997 101.456 129.861 101.456C130.589 101.456 131.245 101.584 131.829 101.84C132.421 102.096 132.917 102.464 133.317 102.944L132.069 104.096C131.501 103.44 130.797 103.112 129.957 103.112C129.437 103.112 128.973 103.228 128.565 103.46C128.157 103.684 127.837 104 127.605 104.408C127.381 104.816 127.269 105.28 127.269 105.8C127.269 106.32 127.381 106.784 127.605 107.192C127.837 107.6 128.157 107.92 128.565 108.152C128.973 108.376 129.437 108.488 129.957 108.488C130.797 108.488 131.501 108.156 132.069 107.492L133.317 108.644C132.917 109.132 132.421 109.504 131.829 109.76C131.237 110.016 130.577 110.144 129.849 110.144ZM135.064 101.6H136.996V107.072L141.004 101.6H142.828V110H140.908V104.54L136.9 110H135.064V101.6ZM151.22 105.62C151.732 105.772 152.124 106.02 152.396 106.364C152.668 106.708 152.804 107.132 152.804 107.636C152.804 108.38 152.52 108.96 151.952 109.376C151.392 109.792 150.588 110 149.54 110H145.4V101.6H149.312C150.288 101.6 151.048 101.788 151.592 102.164C152.136 102.54 152.408 103.076 152.408 103.772C152.408 104.188 152.304 104.556 152.096 104.876C151.888 105.188 151.596 105.436 151.22 105.62ZM147.332 105.08H149.144C149.568 105.08 149.888 104.996 150.104 104.828C150.32 104.652 150.428 104.396 150.428 104.06C150.428 103.732 150.316 103.48 150.092 103.304C149.876 103.128 149.56 103.04 149.144 103.04H147.332V105.08ZM149.468 108.56C150.38 108.56 150.836 108.2 150.836 107.48C150.836 106.784 150.38 106.436 149.468 106.436H147.332V108.56H149.468ZM160.509 108.2H156.609L155.865 110H153.873L157.617 101.6H159.537L163.293 110H161.253L160.509 108.2ZM159.897 106.724L158.565 103.508L157.233 106.724H159.897Z" fill="white"/>
<path d="M95.5393 27.4716C92.0046 27.4716 85.3103 35.6995 85.3103 29.4054C85.3103 25.0828 89.0333 23.0162 92.1546 19.4523C95.2759 15.8877 91.6662 11.4137 89.1275 12.8731C85.6295 14.864 81.7565 17.4235 81.7565 13.5939C81.7373 -0.283865 79.1994 0.000441641 77.4876 0.000441641C75.7765 0.000441641 73.2386 -0.283865 73.2386 13.5746C73.2386 17.405 69.3456 14.8455 65.8675 12.8545C63.3288 11.4137 59.7183 15.8877 62.8396 19.433C65.9609 22.9977 69.6847 25.0643 69.6847 29.3868C69.6847 35.681 62.9904 27.4531 59.455 27.4531C57.3113 27.4531 55.9953 31.017 57.9697 33.8801C60.696 37.8612 65.7167 43.9089 77.5067 43.9089C89.2967 43.9089 94.3174 37.8612 97.0436 33.8801C98.9997 31.0363 97.6829 27.4716 95.5393 27.4716Z" fill="white"/>
<path d="M78.8915 53.5725V34.9518C78.8915 34.169 78.2569 33.5344 77.4741 33.5344C76.6912 33.5344 76.0566 34.169 76.0566 34.9518V53.5725C76.0566 54.3554 76.6912 54.99 77.4741 54.99C78.2569 54.99 78.8915 54.3554 78.8915 53.5725Z" fill="white"/>
</svg>
