<svg width="226" height="55" viewBox="0 0 226 55" fill="none" xmlns="http://www.w3.org/2000/svg">
<path d="M38.5393 27.4716C35.0046 27.4716 28.3103 35.6995 28.3103 29.4054C28.3103 25.0828 32.0333 23.0162 35.1546 19.4523C38.2759 15.8877 34.6662 11.4137 32.1275 12.8731C28.6295 14.864 24.7565 17.4235 24.7565 13.5939C24.7373 -0.283865 22.1994 0.000441641 20.4876 0.000441641C18.7765 0.000441641 16.2386 -0.283865 16.2386 13.5746C16.2386 17.405 12.3456 14.8455 8.86751 12.8545C6.32883 11.4137 2.71833 15.8877 5.83962 19.433C8.96091 22.9977 12.6847 25.0643 12.6847 29.3868C12.6847 35.681 5.99044 27.4531 2.45497 27.4531C0.311334 27.4531 -1.00471 31.017 0.969737 33.8801C3.69598 37.8612 8.71669 43.9089 20.5067 43.9089C32.2967 43.9089 37.3174 37.8612 40.0436 33.8801C41.9997 31.0363 40.6829 27.4716 38.5393 27.4716Z" fill="white"/>
<path d="M21.8915 53.5725V34.9518C21.8915 34.169 21.2569 33.5344 20.474 33.5344C19.6912 33.5344 19.0566 34.169 19.0566 34.9518V53.5725C19.0566 54.3554 19.6912 54.99 20.474 54.99C21.2569 54.99 21.8915 54.3554 21.8915 53.5725Z" fill="white"/>
<path d="M65.15 31.12C63.63 31.12 62.18 30.85 60.8 30.31C59.44 29.77 58.39 29.07 57.65 28.21L58.19 27.49C58.89 28.29 59.86 28.95 61.1 29.47C62.36 29.97 63.7 30.22 65.12 30.22C67.22 30.22 68.8 29.81 69.86 28.99C70.94 28.15 71.48 27.08 71.48 25.78C71.48 24.78 71.2 23.98 70.64 23.38C70.08 22.76 69.39 22.3 68.57 22C67.75 21.68 66.63 21.35 65.21 21.01C63.69 20.63 62.47 20.26 61.55 19.9C60.63 19.54 59.85 18.99 59.21 18.25C58.57 17.51 58.25 16.52 58.25 15.28C58.25 14.3 58.51 13.4 59.03 12.58C59.55 11.76 60.34 11.11 61.4 10.63C62.48 10.13 63.82 9.88 65.42 9.88C66.56 9.88 67.68 10.05 68.78 10.39C69.9 10.73 70.85 11.2 71.63 11.8L71.18 12.61C70.36 12.01 69.44 11.56 68.42 11.26C67.42 10.94 66.43 10.78 65.45 10.78C63.41 10.78 61.86 11.21 60.8 12.07C59.76 12.91 59.24 13.98 59.24 15.28C59.24 16.3 59.52 17.12 60.08 17.74C60.66 18.34 61.36 18.8 62.18 19.12C63.02 19.44 64.14 19.77 65.54 20.11C67.06 20.49 68.28 20.86 69.2 21.22C70.12 21.56 70.89 22.1 71.51 22.84C72.15 23.56 72.47 24.53 72.47 25.75C72.47 26.73 72.2 27.63 71.66 28.45C71.14 29.27 70.33 29.92 69.23 30.4C68.13 30.88 66.77 31.12 65.15 31.12ZM97.9555 31L97.9255 12.07L88.7155 28.09H88.1755L78.9355 12.13V31H77.9455V10H78.7855L88.4455 26.8L98.0755 10H98.9155L98.9455 31H97.9555ZM106.627 10H107.647V31H106.627V10ZM130.088 31L124.898 23.77C124.218 23.89 123.458 23.95 122.618 23.95H116.348V31H115.328V10H122.618C125.238 10 127.278 10.62 128.738 11.86C130.218 13.08 130.958 14.78 130.958 16.96C130.958 18.64 130.518 20.05 129.638 21.19C128.778 22.31 127.538 23.09 125.918 23.53L131.288 31H130.088ZM122.678 23.02C125.018 23.02 126.818 22.5 128.078 21.46C129.338 20.4 129.968 18.9 129.968 16.96C129.968 15.04 129.338 13.56 128.078 12.52C126.818 11.46 125.018 10.93 122.678 10.93H116.348V23.02H122.678ZM153.631 10V31H152.791L137.881 11.86V31H136.861V10H137.701L152.611 29.14V10H153.631ZM170.024 31.12C167.984 31.12 166.134 30.66 164.474 29.74C162.834 28.82 161.544 27.55 160.604 25.93C159.664 24.31 159.194 22.5 159.194 20.5C159.194 18.5 159.664 16.69 160.604 15.07C161.544 13.45 162.834 12.18 164.474 11.26C166.134 10.34 167.984 9.88 170.024 9.88C172.064 9.88 173.914 10.34 175.574 11.26C177.234 12.18 178.534 13.45 179.474 15.07C180.414 16.69 180.884 18.5 180.884 20.5C180.884 22.5 180.414 24.31 179.474 25.93C178.534 27.55 177.234 28.82 175.574 29.74C173.914 30.66 172.064 31.12 170.024 31.12ZM170.024 30.19C171.864 30.19 173.534 29.77 175.034 28.93C176.534 28.09 177.714 26.93 178.574 25.45C179.434 23.97 179.864 22.32 179.864 20.5C179.864 18.68 179.434 17.03 178.574 15.55C177.714 14.07 176.534 12.91 175.034 12.07C173.534 11.23 171.864 10.81 170.024 10.81C168.184 10.81 166.514 11.23 165.014 12.07C163.534 12.91 162.364 14.07 161.504 15.55C160.644 17.03 160.214 18.68 160.214 20.5C160.214 22.32 160.644 23.97 161.504 25.45C162.364 26.93 163.534 28.09 165.014 28.93C166.514 29.77 168.184 30.19 170.024 30.19ZM187.452 10.93V20.53H198.852V21.43H187.452V31H186.432V10H200.202V10.93H187.452ZM206.348 10.93V20.53H217.748V21.43H206.348V31H205.328V10H219.098V10.93H206.348Z" fill="white"/>
<path d="M57.044 40.6H58.976V46.072L62.984 40.6H64.808V49H62.888V43.54L58.88 49H57.044V40.6ZM72.1555 44.62C72.6435 44.788 73.0235 45.052 73.2955 45.412C73.5755 45.764 73.7155 46.176 73.7155 46.648C73.7155 47.16 73.5475 47.604 73.2115 47.98C72.8755 48.356 72.4195 48.644 71.8435 48.844C71.2755 49.044 70.6515 49.144 69.9715 49.144C69.3955 49.144 68.8195 49.072 68.2435 48.928C67.6755 48.784 67.1355 48.564 66.6235 48.268L67.2235 46.876C67.5915 47.1 67.9955 47.272 68.4355 47.392C68.8835 47.504 69.3195 47.56 69.7435 47.56C70.3195 47.56 70.7955 47.456 71.1715 47.248C71.5555 47.04 71.7475 46.748 71.7475 46.372C71.7475 46.06 71.6155 45.824 71.3515 45.664C71.0955 45.504 70.7435 45.424 70.2955 45.424H68.2435V43.96H70.1515C70.5435 43.96 70.8475 43.88 71.0635 43.72C71.2875 43.56 71.3995 43.34 71.3995 43.06C71.3995 42.732 71.2395 42.476 70.9195 42.292C70.6075 42.108 70.2035 42.016 69.7075 42.016C69.3395 42.016 68.9595 42.068 68.5675 42.172C68.1755 42.268 67.8035 42.416 67.4515 42.616L66.8635 41.104C67.7515 40.648 68.7115 40.42 69.7435 40.42C70.3995 40.42 71.0035 40.516 71.5555 40.708C72.1075 40.9 72.5475 41.18 72.8755 41.548C73.2035 41.916 73.3675 42.344 73.3675 42.832C73.3675 43.232 73.2595 43.588 73.0435 43.9C72.8275 44.212 72.5315 44.452 72.1555 44.62ZM84.3985 47.416V50.74H82.5985V49H76.6705V50.74H74.8705L74.8825 47.416H75.2185C75.7225 47.4 76.0785 47.032 76.2865 46.312C76.4945 45.592 76.6225 44.564 76.6705 43.228L76.7665 40.6H83.2225V47.416H84.3985ZM78.3865 43.408C78.3465 44.408 78.2625 45.248 78.1345 45.928C78.0065 46.6 77.8105 47.096 77.5465 47.416H81.3025V42.184H78.4225L78.3865 43.408ZM92.6911 47.44V49H86.1871V40.6H92.5351V42.16H88.1191V43.984H92.0191V45.496H88.1191V47.44H92.6911ZM102.229 40.6V49H100.309V42.184H97.4293L97.3693 43.936C97.3293 45.128 97.2333 46.096 97.0813 46.84C96.9293 47.576 96.6733 48.144 96.3133 48.544C95.9613 48.936 95.4653 49.132 94.8253 49.132C94.5613 49.132 94.2413 49.088 93.8653 49L93.9853 47.356C94.0893 47.388 94.2053 47.404 94.3333 47.404C94.7973 47.404 95.1213 47.132 95.3053 46.588C95.4893 46.036 95.6053 45.176 95.6533 44.008L95.7733 40.6H102.229ZM104.807 40.6H106.739V46.072L110.747 40.6H112.571V49H110.651V43.54L106.643 49H104.807V40.6ZM121.851 40.6V49H119.931V46.768H118.155L116.667 49H114.615L116.367 46.468C115.799 46.236 115.363 45.888 115.059 45.424C114.755 44.952 114.603 44.388 114.603 43.732C114.603 43.084 114.751 42.528 115.047 42.064C115.343 41.592 115.763 41.232 116.307 40.984C116.851 40.728 117.491 40.6 118.227 40.6H121.851ZM118.275 42.184C117.723 42.184 117.299 42.312 117.003 42.568C116.715 42.824 116.571 43.204 116.571 43.708C116.571 44.196 116.711 44.572 116.991 44.836C117.271 45.1 117.683 45.232 118.227 45.232H119.931V42.184H118.275ZM128.314 40.6H130.246V46.072L134.254 40.6H136.078V49H134.158V43.54L130.15 49H128.314V40.6ZM143.425 44.62C143.913 44.788 144.293 45.052 144.565 45.412C144.845 45.764 144.985 46.176 144.985 46.648C144.985 47.16 144.817 47.604 144.481 47.98C144.145 48.356 143.689 48.644 143.113 48.844C142.545 49.044 141.921 49.144 141.241 49.144C140.665 49.144 140.089 49.072 139.513 48.928C138.945 48.784 138.405 48.564 137.893 48.268L138.493 46.876C138.861 47.1 139.265 47.272 139.705 47.392C140.153 47.504 140.589 47.56 141.013 47.56C141.589 47.56 142.065 47.456 142.441 47.248C142.825 47.04 143.017 46.748 143.017 46.372C143.017 46.06 142.885 45.824 142.621 45.664C142.365 45.504 142.013 45.424 141.565 45.424H139.513V43.96H141.421C141.813 43.96 142.117 43.88 142.333 43.72C142.557 43.56 142.669 43.34 142.669 43.06C142.669 42.732 142.509 42.476 142.189 42.292C141.877 42.108 141.473 42.016 140.977 42.016C140.609 42.016 140.229 42.068 139.837 42.172C139.445 42.268 139.073 42.416 138.721 42.616L138.133 41.104C139.021 40.648 139.981 40.42 141.013 40.42C141.669 40.42 142.273 40.516 142.825 40.708C143.377 40.9 143.817 41.18 144.145 41.548C144.473 41.916 144.637 42.344 144.637 42.832C144.637 43.232 144.529 43.588 144.313 43.9C144.097 44.212 143.801 44.452 143.425 44.62ZM158.527 49L158.515 43.972L156.043 48.112H155.179L152.707 44.068V49H150.883V40.6H152.491L155.635 45.82L158.731 40.6H160.339L160.351 49H158.527ZM168.605 47.2H164.705L163.961 49H161.969L165.713 40.6H167.633L171.389 49H169.349L168.605 47.2ZM167.993 45.724L166.661 42.508L165.329 45.724H167.993ZM176.838 49.144C175.982 49.144 175.206 48.96 174.51 48.592C173.822 48.216 173.278 47.7 172.878 47.044C172.486 46.38 172.29 45.632 172.29 44.8C172.29 43.968 172.486 43.224 172.878 42.568C173.278 41.904 173.822 41.388 174.51 41.02C175.206 40.644 175.986 40.456 176.85 40.456C177.578 40.456 178.234 40.584 178.818 40.84C179.41 41.096 179.906 41.464 180.306 41.944L179.058 43.096C178.49 42.44 177.786 42.112 176.946 42.112C176.426 42.112 175.962 42.228 175.554 42.46C175.146 42.684 174.826 43 174.594 43.408C174.37 43.816 174.258 44.28 174.258 44.8C174.258 45.32 174.37 45.784 174.594 46.192C174.826 46.6 175.146 46.92 175.554 47.152C175.962 47.376 176.426 47.488 176.946 47.488C177.786 47.488 178.49 47.156 179.058 46.492L180.306 47.644C179.906 48.132 179.41 48.504 178.818 48.76C178.226 49.016 177.566 49.144 176.838 49.144ZM185.849 49.144C184.993 49.144 184.217 48.96 183.521 48.592C182.833 48.216 182.289 47.7 181.889 47.044C181.497 46.38 181.301 45.632 181.301 44.8C181.301 43.968 181.497 43.224 181.889 42.568C182.289 41.904 182.833 41.388 183.521 41.02C184.217 40.644 184.997 40.456 185.861 40.456C186.589 40.456 187.245 40.584 187.829 40.84C188.421 41.096 188.917 41.464 189.317 41.944L188.069 43.096C187.501 42.44 186.797 42.112 185.957 42.112C185.437 42.112 184.973 42.228 184.565 42.46C184.157 42.684 183.837 43 183.605 43.408C183.381 43.816 183.269 44.28 183.269 44.8C183.269 45.32 183.381 45.784 183.605 46.192C183.837 46.6 184.157 46.92 184.565 47.152C184.973 47.376 185.437 47.488 185.957 47.488C186.797 47.488 187.501 47.156 188.069 46.492L189.317 47.644C188.917 48.132 188.421 48.504 187.829 48.76C187.237 49.016 186.577 49.144 185.849 49.144ZM191.064 40.6H192.996V46.072L197.004 40.6H198.828V49H196.908V43.54L192.9 49H191.064V40.6ZM207.22 44.62C207.732 44.772 208.124 45.02 208.396 45.364C208.668 45.708 208.804 46.132 208.804 46.636C208.804 47.38 208.52 47.96 207.952 48.376C207.392 48.792 206.588 49 205.54 49H201.4V40.6H205.312C206.288 40.6 207.048 40.788 207.592 41.164C208.136 41.54 208.408 42.076 208.408 42.772C208.408 43.188 208.304 43.556 208.096 43.876C207.888 44.188 207.596 44.436 207.22 44.62ZM203.332 44.08H205.144C205.568 44.08 205.888 43.996 206.104 43.828C206.32 43.652 206.428 43.396 206.428 43.06C206.428 42.732 206.316 42.48 206.092 42.304C205.876 42.128 205.56 42.04 205.144 42.04H203.332V44.08ZM205.468 47.56C206.38 47.56 206.836 47.2 206.836 46.48C206.836 45.784 206.38 45.436 205.468 45.436H203.332V47.56H205.468ZM216.509 47.2H212.609L211.865 49H209.873L213.617 40.6H215.537L219.293 49H217.253L216.509 47.2ZM215.897 45.724L214.565 42.508L213.233 45.724H215.897Z" fill="white"/>
</svg>
